<?xml version="1.0" standalone="no"?>
<!DOCTYPE svg PUBLIC "-//W3C//DTD SVG 20010904//EN"
 "http://www.w3.org/TR/2001/REC-SVG-20010904/DTD/svg10.dtd">
<svg version="1.0" xmlns="http://www.w3.org/2000/svg"
 width="1200.000000pt" height="1200.000000pt" viewBox="0 0 1200.000000 1200.000000"
 preserveAspectRatio="xMidYMid meet">

<g transform="translate(0.000000,1200.000000) scale(0.100000,-0.100000)"
fill="#000000" stroke="none">
<path d="M5740 8430 c-438 -46 -912 -205 -1252 -421 -704 -447 -1162 -1131
-1297 -1936 -74 -436 -59 -806 49 -1233 126 -497 431 -1005 809 -1348 210
-189 367 -300 631 -444 259 -141 647 -262 1000 -310 144 -20 565 -16 715 6
473 69 920 250 1288 524 580 430 984 1050 1118 1717 76 380 83 700 25 1048
-128 754 -515 1388 -1134 1856 -360 272 -791 451 -1257 521 -159 24 -550 35
-695 20z m594 -96 c513 -56 974 -251 1401 -592 677 -541 1071 -1384 1042
-2232 -23 -667 -277 -1295 -731 -1801 -136 -153 -294 -292 -466 -411 -104 -72
-263 -168 -278 -168 -6 0 -12 139 -15 353 -4 302 -7 367 -25 462 -34 176 -84
296 -168 407 -123 159 -291 254 -514 290 l-85 14 -2 55 -3 54 83 55 c45 30
115 88 156 129 71 72 173 214 200 279 16 39 5 39 251 7 107 -13 275 -34 374
-45 251 -29 255 -22 108 175 -267 357 -352 474 -352 485 0 6 24 21 53 34 28
13 186 81 350 152 189 81 302 136 309 148 8 14 6 23 -8 37 -11 9 -172 84 -359
164 -187 81 -344 150 -348 154 -8 8 29 60 301 424 83 113 152 212 152 220 0
40 -16 40 -414 -5 -211 -23 -387 -40 -390 -37 -7 6 16 221 59 560 14 108 23
204 19 212 -8 21 -39 30 -61 18 -10 -5 -151 -109 -313 -230 -162 -121 -298
-221 -301 -221 -6 0 -84 176 -259 581 -51 118 -64 139 -90 139 -23 0 -33 -14
-63 -85 -75 -180 -268 -620 -276 -628 -10 -10 -43 14 -428 300 -193 144 -235
165 -250 126 -3 -9 -1 -59 5 -112 74 -608 80 -671 65 -671 -5 -1 -178 18 -386
41 -350 40 -379 41 -394 26 -13 -13 -14 -21 -6 -39 6 -13 111 -158 233 -322
251 -338 239 -303 122 -352 -286 -120 -608 -264 -616 -276 -5 -9 -6 -23 -3
-32 8 -20 88 -57 602 -276 72 -31 110 -52 109 -62 -1 -8 -103 -153 -228 -321
-199 -269 -226 -309 -216 -327 8 -15 21 -20 54 -20 39 0 430 44 621 70 39 5
87 9 107 10 35 0 39 -3 64 -52 75 -149 212 -298 356 -388 l88 -55 0 -51 0 -51
-50 -6 c-93 -11 -185 -39 -279 -84 -240 -115 -402 -382 -440 -727 -6 -52 -11
-239 -11 -416 0 -212 -3 -320 -10 -320 -28 0 -195 95 -355 203 -419 281 -755
686 -956 1153 -153 356 -223 666 -235 1049 -10 267 16 495 86 775 193 767 715
1412 1437 1774 504 252 1011 342 1577 280z m-275 -391 c24 -54 62 -143 86
-198 24 -55 70 -161 102 -235 51 -119 61 -135 83 -138 20 -2 65 26 185 116
335 249 407 302 416 302 5 0 9 -6 9 -12 0 -19 -27 -249 -56 -477 -14 -112 -23
-213 -20 -226 3 -12 14 -25 24 -27 17 -5 448 41 584 62 79 12 138 13 138 3 0
-5 -93 -132 -205 -283 -113 -151 -208 -282 -211 -292 -10 -32 14 -54 103 -90
73 -31 199 -85 536 -231 22 -10 37 -27 24 -27 -2 0 -55 -23 -117 -51 -308
-137 -484 -209 -490 -202 -3 4 -14 33 -23 63 -22 72 -65 123 -131 154 l-53 25
-7 108 c-23 342 -120 572 -322 764 -173 163 -386 251 -649 266 -450 26 -864
-258 -999 -685 -37 -117 -56 -238 -56 -353 l0 -98 -50 -22 c-85 -37 -160 -138
-160 -218 0 -11 -5 -21 -10 -21 -6 0 -124 49 -263 109 -138 60 -276 119 -304
131 -29 12 -53 25 -53 29 0 3 58 30 128 60 358 153 519 225 536 241 18 18 18
19 0 49 -10 17 -108 150 -216 295 -109 145 -198 269 -198 276 0 7 10 10 28 6
35 -8 398 -51 565 -67 172 -17 164 -29 137 184 -11 92 -29 242 -40 334 -12 92
-20 181 -18 196 3 32 -28 53 458 -310 69 -51 130 -93 136 -93 23 0 47 44 157
300 63 146 124 286 136 312 11 26 21 52 21 57 0 32 22 0 59 -86z m146 -722
c278 -57 521 -244 648 -496 39 -78 74 -201 87 -306 18 -141 8 -848 -13 -944
-49 -223 -170 -420 -333 -544 -89 -66 -250 -146 -348 -171 -319 -81 -658 17
-890 260 -89 93 -138 168 -182 275 -76 184 -89 309 -81 780 6 386 15 453 84
610 127 294 350 467 688 535 117 24 229 24 340 1z m-1195 -1290 c0 -89 -4
-152 -10 -156 -16 -10 -69 27 -91 61 -43 70 -16 193 49 229 52 28 52 26 52
-134z m2099 108 c59 -58 65 -149 14 -209 -27 -33 -80 -65 -85 -52 -2 4 -2 71
0 150 3 131 5 142 22 142 10 0 32 -14 49 -31z m-2152 -345 c50 -22 52 -25 57
-71 3 -26 15 -99 27 -161 12 -64 18 -117 13 -122 -9 -8 -388 -55 -541 -67 -46
-3 -83 -2 -83 2 0 10 68 106 243 338 l149 198 41 -47 c25 -28 62 -56 94 -70z
m2434 -107 c189 -253 233 -317 222 -317 -44 0 -618 71 -624 77 -4 4 1 40 12
78 10 39 22 102 25 140 8 110 10 113 53 126 42 12 101 60 120 97 6 12 15 22
19 22 4 0 82 -100 173 -223z m-991 -923 c0 -137 -55 -259 -147 -330 -109 -83
-260 -98 -383 -37 -77 38 -137 97 -176 173 -24 45 -29 70 -32 147 -3 51 0 93
4 93 5 0 50 -12 99 -26 172 -48 393 -42 556 15 79 28 79 29 79 -35z m-890
-109 c0 -10 -582 -790 -612 -820 l-20 -20 6 90 c20 314 170 572 399 685 101
50 227 86 227 65z m1145 -10 c83 -22 195 -76 263 -129 162 -124 261 -348 287
-643 4 -43 2 -73 -3 -73 -5 0 -144 179 -307 398 -164 218 -309 412 -323 430
l-24 32 24 0 c13 0 51 -7 83 -15z m-1093 -881 c-2 -435 -7 -797 -12 -804 -6
-10 -25 -10 -103 4 -52 10 -109 25 -126 34 -37 21 -192 202 -186 219 2 6 47
77 99 158 53 80 96 152 96 159 0 17 -22 35 -105 83 -38 22 -113 65 -165 95
-52 31 -94 60 -92 67 4 21 586 791 592 783 3 -4 4 -363 2 -798z m1028 700
c184 -237 510 -676 510 -688 0 -7 -73 -55 -162 -106 -176 -100 -198 -115 -198
-138 0 -9 46 -85 101 -169 l101 -154 -19 -22 c-11 -12 -50 -57 -87 -99 -38
-42 -76 -80 -85 -83 -35 -14 -231 -53 -235 -46 -5 9 -19 1611 -13 1611 2 0 41
-48 87 -106z m-169 -763 c2 -635 0 -755 -12 -761 -22 -13 -257 -30 -397 -30
-144 0 -353 17 -366 30 -5 5 -5 336 -1 764 l7 756 60 -55 c104 -97 196 -129
348 -123 85 3 105 8 166 38 43 21 90 55 124 90 30 31 58 54 62 51 4 -4 8 -345
9 -760z m-1234 -157 c18 -11 33 -24 33 -30 0 -6 -40 -73 -90 -150 -49 -76 -90
-148 -90 -160 0 -12 19 -43 42 -70 80 -94 77 -88 43 -80 -59 14 -239 86 -247
99 -9 14 -11 551 -2 559 4 5 109 -52 311 -168z m2023 -86 c0 -145 -4 -268 -8
-274 -4 -6 -22 -19 -40 -28 -55 -28 -214 -88 -219 -82 -3 3 14 27 37 53 23 26
46 55 51 64 6 13 -17 55 -91 170 -54 85 -96 157 -92 161 15 15 338 197 350
198 9 0 12 -59 12 -262z"/>
<path d="M5465 6903 c-36 -10 -64 -35 -85 -77 -39 -81 -20 -184 43 -230 28
-21 40 -21 565 -24 295 -2 551 0 568 3 44 8 100 67 113 121 22 86 -8 162 -74
194 -40 19 -62 20 -576 19 -294 -1 -543 -4 -554 -6z m1071 -86 c38 -13 61
-109 35 -141 -12 -14 -70 -16 -541 -16 -518 0 -528 0 -554 21 -30 24 -36 81
-12 115 14 18 34 19 523 24 576 6 521 6 549 -3z"/>
<path d="M5487 6479 c-106 -25 -212 -111 -263 -214 -27 -55 -29 -69 -29 -170
0 -102 2 -114 29 -168 57 -112 170 -197 288 -217 135 -23 258 19 351 120 77
83 101 147 102 270 0 89 -2 100 -34 164 -55 113 -137 181 -256 212 -56 15
-131 16 -188 3z m218 -103 c155 -71 225 -260 152 -408 -16 -33 -49 -76 -78
-102 -64 -57 -129 -79 -217 -74 -263 15 -387 329 -204 516 97 99 224 124 347
68z"/>
<path d="M5544 6166 c-78 -34 -49 -146 38 -146 67 0 100 74 56 124 -30 32 -56
38 -94 22z"/>
<path d="M6376 6480 c-63 -16 -153 -70 -197 -117 -213 -231 -90 -591 225 -654
156 -32 334 58 406 204 83 169 57 331 -75 463 -44 45 -76 67 -120 83 -68 26
-180 35 -239 21z m211 -100 c57 -25 124 -89 153 -147 18 -35 26 -69 28 -126 4
-71 1 -84 -27 -142 -36 -73 -83 -118 -159 -153 -108 -49 -264 -15 -343 75 -59
68 -74 110 -74 208 0 99 15 140 77 210 34 39 112 84 168 96 48 11 127 1 177
-21z"/>
<path d="M6434 6166 c-75 -33 -49 -146 33 -146 46 0 77 30 77 74 0 62 -53 96
-110 72z"/>
<path d="M5790 5711 c-13 -26 -13 -236 1 -301 20 -95 102 -172 198 -186 103
-16 216 58 246 159 15 51 22 298 9 331 -7 18 -59 22 -70 5 -3 -6 -6 -59 -5
-118 2 -138 -12 -204 -53 -249 -28 -30 -40 -36 -87 -39 -66 -5 -107 17 -135
73 -15 32 -20 66 -22 179 -2 77 -8 146 -14 152 -16 19 -56 15 -68 -6z"/>
<path d="M5622 5187 c-21 -25 -42 -86 -42 -119 0 -18 9 -52 20 -75 22 -49 61
-66 88 -39 14 14 15 20 3 49 -23 56 -24 86 -5 123 14 26 16 38 8 52 -14 22
-57 27 -72 9z"/>
<path d="M6400 5185 c-11 -14 -12 -22 -1 -48 23 -55 24 -85 7 -113 -20 -30
-18 -63 7 -78 36 -23 88 38 94 111 9 91 -65 179 -107 128z"/>
<path d="M5823 5125 c-39 -7 -76 -16 -82 -20 -19 -11 -13 -63 9 -75 16 -9 20
-21 21 -63 0 -78 18 -119 59 -140 64 -33 127 -8 155 60 10 24 26 39 57 52 44
18 68 51 68 91 0 24 10 24 131 8 71 -9 91 -9 103 2 26 21 20 56 -11 68 -83 32
-373 42 -510 17z m197 -89 c0 -7 -19 -21 -43 -30 -34 -13 -47 -25 -62 -58 -29
-63 -49 -57 -53 15 -2 35 2 64 9 73 16 20 149 20 149 0z"/>
</g>
</svg>
